# xmcd CD database file
#
# Track frame offsets:
#	150
#	2250
#	28104
#	48275
#	71873
#	93193
#	116507
#	139683
#	155392
#	156191
#	178515
#	197766
#	221930
#	238533
#
# Disc length: 3494 seconds
#
# Revision: 0
# Processed by: cddbd v1.5.2PL0 Copyright (c) Steve Scherf et al.
# Submitted via: CDex 1.51
#
DISCID=b70da40e
DTITLE=Olaf Schönborn's Q4 - Radio Jazz
DYEAR=2008
DGENRE=Jazz
TTITLE0=Radioblabla
TTITLE1=For Pat
TTITLE2=In A Bossa Mood
TTITLE3=Im Zug
TTITLE4=Mendoza Morning
TTITLE5=Concrete Samba
TTITLE6=When Love Breaks Down
TTITLE7=Michael's Latin Blues
TTITLE8=Weather Forecast
TTITLE9=April Showers
TTITLE10=Sonne Im Mai
TTITLE11=Mein Kleiner Antione
TTITLE12=For Pat (Radio Edit)
TTITLE13=Im Zug (Addictz Remix)
EXTD=YEAR: 2008
EXTT0=
EXTT1=
EXTT2=
EXTT3=
EXTT4=
EXTT5=
EXTT6=
EXTT7=
EXTT8=
EXTT9=
EXTT10=
EXTT11=
EXTT12=
EXTT13=
PLAYORDER=
